<?xml version="1.0" encoding="UTF-8" standalone="no"?>
<!DOCTYPE svg PUBLIC "-//W3C//DTD SVG 1.1//EN"
 "http://www.w3.org/Graphics/SVG/1.1/DTD/svg11.dtd">
<!-- Generated by graphviz version 12.1.0 (20240811.2233)
 -->
<!-- Pages: 1 -->
<svg width="1638pt" height="894pt"
 viewBox="0.00 0.00 1638.00 893.96" xmlns="http://www.w3.org/2000/svg" xmlns:xlink="http://www.w3.org/1999/xlink">
<g id="graph0" class="graph" transform="scale(1 1) rotate(0) translate(36 857.96)">
<polygon fill="white" stroke="none" points="-36,36 -36,-857.96 1602,-857.96 1602,36 -36,36"/>
<!-- mongodb -->
<g id="node1" class="node">
<title>mongodb</title>
<polygon fill="none" stroke="black" points="455.88,-129.5 166.12,-129.5 166.12,-125.5 162.12,-125.5 162.12,-121.5 166.12,-121.5 166.12,-96.5 162.12,-96.5 162.12,-92.5 166.12,-92.5 166.12,-88.5 455.88,-88.5 455.88,-129.5"/>
<polyline fill="none" stroke="black" points="166.12,-125.5 170.12,-125.5 170.12,-121.5 166.12,-121.5"/>
<polyline fill="none" stroke="black" points="166.12,-96.5 170.12,-96.5 170.12,-92.5 166.12,-92.5"/>
<text text-anchor="middle" x="311" y="-112.2" font-family="Times,serif" font-size="14.00">statsdb_no_persistence</text>
<text text-anchor="middle" x="311" y="-95.7" font-family="Times,serif" font-size="14.00">(build from &#39;./mongo_database&#39; using &#39;Dockerfile&#39;)</text>
</g>
<!-- 0.0.0.027017 -->
<g id="node2" class="node">
<title>0.0.0.027017</title>
<ellipse fill="none" stroke="black" cx="513" cy="-244.61" rx="62.61" ry="62.61"/>
<text text-anchor="middle" x="513" y="-239.56" font-family="Times,serif" font-size="14.00">0.0.0.0:27017</text>
</g>
<!-- 0.0.0.027017&#45;&gt;mongodb -->
<g id="edge1" class="edge">
<title>0.0.0.027017&#45;&gt;mongodb</title>
<path fill="none" stroke="black" d="M466.85,-201.76C458.47,-194.86 449.65,-188 441,-182 416.06,-164.69 386.57,-148.07 362,-135.18"/>
<polygon fill="black" stroke="black" points="363.62,-132.08 353.13,-130.58 360.4,-138.29 363.62,-132.08"/>
<text text-anchor="middle" x="427.05" y="-150.7" font-family="Times,serif" font-size="14.00">27017</text>
</g>
<!-- api -->
<g id="node3" class="node">
<title>api</title>
<polygon fill="none" stroke="black" points="432.25,-265.11 189.75,-265.11 189.75,-261.11 185.75,-261.11 185.75,-257.11 189.75,-257.11 189.75,-232.11 185.75,-232.11 185.75,-228.11 189.75,-228.11 189.75,-224.11 432.25,-224.11 432.25,-265.11"/>
<polyline fill="none" stroke="black" points="189.75,-261.11 193.75,-261.11 193.75,-257.11 189.75,-257.11"/>
<polyline fill="none" stroke="black" points="189.75,-232.11 193.75,-232.11 193.75,-228.11 189.75,-228.11"/>
<text text-anchor="middle" x="311" y="-247.81" font-family="Times,serif" font-size="14.00">data_api</text>
<text text-anchor="middle" x="311" y="-231.31" font-family="Times,serif" font-size="14.00">(build from &#39;./dataAPI&#39; using &#39;Dockerfile&#39;)</text>
</g>
<!-- api&#45;&gt;mongodb -->
<g id="edge3" class="edge">
<title>api&#45;&gt;mongodb</title>
<path fill="none" stroke="black" stroke-dasharray="1,5" d="M311,-223.9C311,-202.09 311,-166.66 311,-141.1"/>
<polygon fill="black" stroke="black" points="314.5,-141.31 311,-131.31 307.5,-141.31 314.5,-141.31"/>
</g>
<!-- 0.0.0.03018 -->
<g id="node4" class="node">
<title>0.0.0.03018</title>
<ellipse fill="none" stroke="black" cx="311" cy="-422.33" rx="58" ry="58"/>
<text text-anchor="middle" x="311" y="-417.28" font-family="Times,serif" font-size="14.00">0.0.0.0:3018</text>
</g>
<!-- 0.0.0.03018&#45;&gt;api -->
<g id="edge2" class="edge">
<title>0.0.0.03018&#45;&gt;api</title>
<path fill="none" stroke="black" d="M311,-364.28C311,-335.13 311,-300.81 311,-276.59"/>
<polygon fill="black" stroke="black" points="314.5,-276.77 311,-266.77 307.5,-276.77 314.5,-276.77"/>
<text text-anchor="middle" x="324.5" y="-328.42" font-family="Times,serif" font-size="14.00">3018</text>
</g>
<!-- userdb -->
<g id="node5" class="node">
<title>userdb</title>
<polygon fill="none" stroke="black" points="971.5,-129.5 730.5,-129.5 730.5,-125.5 726.5,-125.5 726.5,-121.5 730.5,-121.5 730.5,-96.5 726.5,-96.5 726.5,-92.5 730.5,-92.5 730.5,-88.5 971.5,-88.5 971.5,-129.5"/>
<polyline fill="none" stroke="black" points="730.5,-125.5 734.5,-125.5 734.5,-121.5 730.5,-121.5"/>
<polyline fill="none" stroke="black" points="730.5,-96.5 734.5,-96.5 734.5,-92.5 730.5,-92.5"/>
<text text-anchor="middle" x="851" y="-112.2" font-family="Times,serif" font-size="14.00">userdb_persistence</text>
<text text-anchor="middle" x="851" y="-95.7" font-family="Times,serif" font-size="14.00">(build from &#39;./user_db&#39; using &#39;Dockerfile&#39;)</text>
</g>
<!-- userdb_data -->
<g id="node6" class="node">
<title>userdb_data</title>
<path fill="none" stroke="black" d="M891.62,-32.73C891.62,-34.53 873.42,-36 851,-36 828.58,-36 810.38,-34.53 810.38,-32.73 810.38,-32.73 810.38,-3.27 810.38,-3.27 810.38,-1.47 828.58,0 851,0 873.42,0 891.62,-1.47 891.62,-3.27 891.62,-3.27 891.62,-32.73 891.62,-32.73"/>
<path fill="none" stroke="black" d="M891.62,-32.73C891.62,-30.92 873.42,-29.45 851,-29.45 828.58,-29.45 810.38,-30.92 810.38,-32.73"/>
<text text-anchor="middle" x="851" y="-12.95" font-family="Times,serif" font-size="14.00">userdb_data</text>
</g>
<!-- userdb&#45;&gt;userdb_data -->
<g id="edge4" class="edge">
<title>userdb&#45;&gt;userdb_data</title>
<path fill="none" stroke="black" stroke-dasharray="5,2" d="M851,-76.9C851,-67.43 851,-57.07 851,-47.76"/>
<polygon fill="black" stroke="black" points="847.5,-76.73 851,-86.73 854.5,-76.73 847.5,-76.73"/>
<polygon fill="black" stroke="black" points="854.5,-47.81 851,-37.81 847.5,-47.81 854.5,-47.81"/>
<text text-anchor="middle" x="913.25" y="-57.2" font-family="Times,serif" font-size="14.00">/var/lib/postgresql/data</text>
</g>
<!-- 0.0.0.05432 -->
<g id="node7" class="node">
<title>0.0.0.05432</title>
<ellipse fill="none" stroke="black" cx="652" cy="-244.61" rx="58" ry="58"/>
<text text-anchor="middle" x="652" y="-239.56" font-family="Times,serif" font-size="14.00">0.0.0.0:5432</text>
</g>
<!-- 0.0.0.05432&#45;&gt;userdb -->
<g id="edge5" class="edge">
<title>0.0.0.05432&#45;&gt;userdb</title>
<path fill="none" stroke="black" d="M667.81,-188.53C674.59,-173.33 684.03,-158.12 697,-147.5 704.04,-141.74 711.83,-136.84 720.06,-132.68"/>
<polygon fill="black" stroke="black" points="721.3,-135.96 728.92,-128.59 718.37,-129.6 721.3,-135.96"/>
<text text-anchor="middle" x="710.5" y="-150.7" font-family="Times,serif" font-size="14.00">5432</text>
</g>
<!-- user_db_gui -->
<g id="node8" class="node">
<title>user_db_gui</title>
<polygon fill="none" stroke="black" points="1297.5,-265.11 1032.5,-265.11 1032.5,-261.11 1028.5,-261.11 1028.5,-257.11 1032.5,-257.11 1032.5,-232.11 1028.5,-232.11 1028.5,-228.11 1032.5,-228.11 1032.5,-224.11 1297.5,-224.11 1297.5,-265.11"/>
<polyline fill="none" stroke="black" points="1032.5,-261.11 1036.5,-261.11 1036.5,-257.11 1032.5,-257.11"/>
<polyline fill="none" stroke="black" points="1032.5,-232.11 1036.5,-232.11 1036.5,-228.11 1032.5,-228.11"/>
<text text-anchor="middle" x="1165" y="-247.81" font-family="Times,serif" font-size="14.00">userdb_gui</text>
<text text-anchor="middle" x="1165" y="-231.31" font-family="Times,serif" font-size="14.00">(build from &#39;./user_db_gui&#39; using &#39;Dockerfile&#39;)</text>
</g>
<!-- user_db_gui&#45;&gt;userdb -->
<g id="edge7" class="edge">
<title>user_db_gui&#45;&gt;userdb</title>
<path fill="none" stroke="black" stroke-dasharray="1,5" d="M1120,-223.71C1092.36,-211.54 1056.19,-195.73 1024,-182 986.2,-165.88 943.58,-148.13 910.1,-134.29"/>
<polygon fill="black" stroke="black" points="911.54,-131.11 900.97,-130.52 908.87,-137.58 911.54,-131.11"/>
</g>
<!-- 0.0.0.015432 -->
<g id="node9" class="node">
<title>0.0.0.015432</title>
<ellipse fill="none" stroke="black" cx="1165" cy="-422.33" rx="62.61" ry="62.61"/>
<text text-anchor="middle" x="1165" y="-417.28" font-family="Times,serif" font-size="14.00">0.0.0.0:15432</text>
</g>
<!-- 0.0.0.015432&#45;&gt;user_db_gui -->
<g id="edge6" class="edge">
<title>0.0.0.015432&#45;&gt;user_db_gui</title>
<path fill="none" stroke="black" d="M1165,-359.38C1165,-331.41 1165,-299.58 1165,-276.72"/>
<polygon fill="black" stroke="black" points="1168.5,-276.85 1165,-266.85 1161.5,-276.85 1168.5,-276.85"/>
<text text-anchor="middle" x="1171.75" y="-328.42" font-family="Times,serif" font-size="14.00">80</text>
</g>
<!-- frontend -->
<g id="node10" class="node">
<title>frontend</title>
<polygon fill="none" stroke="black" points="692.62,-442.83 437.38,-442.83 437.38,-438.83 433.38,-438.83 433.38,-434.83 437.38,-434.83 437.38,-409.83 433.38,-409.83 433.38,-405.83 437.38,-405.83 437.38,-401.83 692.62,-401.83 692.62,-442.83"/>
<polyline fill="none" stroke="black" points="437.38,-438.83 441.38,-438.83 441.38,-434.83 437.38,-434.83"/>
<polyline fill="none" stroke="black" points="437.38,-409.83 441.38,-409.83 441.38,-405.83 437.38,-405.83"/>
<text text-anchor="middle" x="565" y="-425.53" font-family="Times,serif" font-size="14.00">stats_frontend</text>
<text text-anchor="middle" x="565" y="-409.03" font-family="Times,serif" font-size="14.00">(build from &#39;./stats_front&#39; using &#39;Dockerfile&#39;)</text>
</g>
<!-- frontend&#45;&gt;api -->
<g id="edge9" class="edge">
<title>frontend&#45;&gt;api</title>
<path fill="none" stroke="black" stroke-dasharray="1,5" d="M536.36,-401.52C490.41,-369.73 400.19,-307.32 348.94,-271.86"/>
<polygon fill="black" stroke="black" points="351,-269.03 340.78,-266.22 347.02,-274.78 351,-269.03"/>
</g>
<!-- frontend&#45;&gt;userdb -->
<g id="edge10" class="edge">
<title>frontend&#45;&gt;userdb</title>
<path fill="none" stroke="black" stroke-dasharray="1,5" d="M604.39,-401.51C639.3,-382.02 689.23,-349.14 719,-307.22 752.75,-259.7 724.75,-229.88 758,-182 770.58,-163.89 789.1,-148.24 806.3,-136.21"/>
<polygon fill="black" stroke="black" points="808.08,-139.23 814.42,-130.74 804.17,-133.42 808.08,-139.23"/>
</g>
<!-- 0.0.0.03000 -->
<g id="node11" class="node">
<title>0.0.0.03000</title>
<ellipse fill="none" stroke="black" cx="565" cy="-595.45" rx="58" ry="58"/>
<text text-anchor="middle" x="565" y="-590.4" font-family="Times,serif" font-size="14.00">0.0.0.0:3000</text>
</g>
<!-- 0.0.0.03000&#45;&gt;frontend -->
<g id="edge8" class="edge">
<title>0.0.0.03000&#45;&gt;frontend</title>
<path fill="none" stroke="black" d="M565,-536.99C565,-509.51 565,-477.66 565,-454.69"/>
<polygon fill="black" stroke="black" points="568.5,-454.75 565,-444.75 561.5,-454.75 568.5,-454.75"/>
<text text-anchor="middle" x="578.5" y="-506.14" font-family="Times,serif" font-size="14.00">3000</text>
</g>
<!-- prometheus -->
<g id="node12" class="node">
<title>prometheus</title>
<polygon fill="none" stroke="black" points="881.88,-442.83 760.12,-442.83 760.12,-438.83 756.12,-438.83 756.12,-434.83 760.12,-434.83 760.12,-409.83 756.12,-409.83 756.12,-405.83 760.12,-405.83 760.12,-401.83 881.88,-401.83 881.88,-442.83"/>
<polyline fill="none" stroke="black" points="760.12,-438.83 764.12,-438.83 764.12,-434.83 760.12,-434.83"/>
<polyline fill="none" stroke="black" points="760.12,-409.83 764.12,-409.83 764.12,-405.83 760.12,-405.83"/>
<text text-anchor="middle" x="821" y="-425.53" font-family="Times,serif" font-size="14.00">prometheus</text>
<text text-anchor="middle" x="821" y="-409.03" font-family="Times,serif" font-size="14.00">(prom/prometheus)</text>
</g>
<!-- prometheus&#45;&gt;api -->
<g id="edge14" class="edge">
<title>prometheus&#45;&gt;api</title>
<path fill="none" stroke="black" stroke-dasharray="1,5" d="M783.76,-401.36C760.43,-389.03 729.66,-373.07 702,-359.72 668.22,-343.43 661.25,-334.84 625,-325.22 545.58,-304.15 520.19,-329.14 441,-307.22 410.99,-298.91 379.37,-284.08 354.83,-271.05"/>
<polygon fill="black" stroke="black" points="356.57,-268.01 346.11,-266.33 353.23,-274.17 356.57,-268.01"/>
</g>
<!-- prometheus_data -->
<g id="node13" class="node">
<title>prometheus_data</title>
<path fill="none" stroke="black" d="M875.5,-259.34C875.5,-261.14 851.07,-262.61 821,-262.61 790.93,-262.61 766.5,-261.14 766.5,-259.34 766.5,-259.34 766.5,-229.88 766.5,-229.88 766.5,-228.08 790.93,-226.61 821,-226.61 851.07,-226.61 875.5,-228.08 875.5,-229.88 875.5,-229.88 875.5,-259.34 875.5,-259.34"/>
<path fill="none" stroke="black" d="M875.5,-259.34C875.5,-257.53 851.07,-256.07 821,-256.07 790.93,-256.07 766.5,-257.53 766.5,-259.34"/>
<text text-anchor="middle" x="821" y="-239.56" font-family="Times,serif" font-size="14.00">prometheus_data</text>
</g>
<!-- prometheus&#45;&gt;prometheus_data -->
<g id="edge11" class="edge">
<title>prometheus&#45;&gt;prometheus_data</title>
<path fill="none" stroke="black" stroke-dasharray="5,2" d="M821,-390.4C821,-357.56 821,-306.1 821,-274.19"/>
<polygon fill="black" stroke="black" points="817.5,-390 821,-400 824.5,-390 817.5,-390"/>
<polygon fill="black" stroke="black" points="824.5,-274.51 821,-264.51 817.5,-274.51 824.5,-274.51"/>
<text text-anchor="middle" x="854.75" y="-328.42" font-family="Times,serif" font-size="14.00">/prometheus</text>
</g>
<!-- prometheus_config -->
<g id="node14" class="node">
<title>prometheus_config</title>
<path fill="none" stroke="black" d="M1014.5,-259.34C1014.5,-261.14 987.38,-262.61 954,-262.61 920.62,-262.61 893.5,-261.14 893.5,-259.34 893.5,-259.34 893.5,-229.88 893.5,-229.88 893.5,-228.08 920.62,-226.61 954,-226.61 987.38,-226.61 1014.5,-228.08 1014.5,-229.88 1014.5,-229.88 1014.5,-259.34 1014.5,-259.34"/>
<path fill="none" stroke="black" d="M1014.5,-259.34C1014.5,-257.53 987.38,-256.07 954,-256.07 920.62,-256.07 893.5,-257.53 893.5,-259.34"/>
<text text-anchor="middle" x="954" y="-239.56" font-family="Times,serif" font-size="14.00">prometheus_config</text>
</g>
<!-- prometheus&#45;&gt;prometheus_config -->
<g id="edge12" class="edge">
<title>prometheus&#45;&gt;prometheus_config</title>
<path fill="none" stroke="black" stroke-dasharray="5,2" d="M848.49,-393.31C862.46,-378.5 879.32,-359.7 893,-341.72 909.94,-319.46 926.8,-292.43 938.48,-272.71"/>
<polygon fill="black" stroke="black" points="846.06,-390.79 841.69,-400.45 851.12,-395.62 846.06,-390.79"/>
<polygon fill="black" stroke="black" points="941.46,-274.56 943.49,-264.17 935.41,-271.03 941.46,-274.56"/>
<text text-anchor="middle" x="947.46" y="-328.42" font-family="Times,serif" font-size="14.00">/etc/prometheus</text>
</g>
<!-- mongodb&#45;exporter -->
<g id="node16" class="node">
<title>mongodb&#45;exporter</title>
<polygon fill="none" stroke="black" points="172,-265.11 0,-265.11 0,-261.11 -4,-261.11 -4,-257.11 0,-257.11 0,-232.11 -4,-232.11 -4,-228.11 0,-228.11 0,-224.11 172,-224.11 172,-265.11"/>
<polyline fill="none" stroke="black" points="0,-261.11 4,-261.11 4,-257.11 0,-257.11"/>
<polyline fill="none" stroke="black" points="0,-232.11 4,-232.11 4,-228.11 0,-228.11"/>
<text text-anchor="middle" x="86" y="-247.81" font-family="Times,serif" font-size="14.00">mongodb&#45;exporter</text>
<text text-anchor="middle" x="86" y="-231.31" font-family="Times,serif" font-size="14.00">(bitnami/mongodb&#45;exporter)</text>
</g>
<!-- prometheus&#45;&gt;mongodb&#45;exporter -->
<g id="edge15" class="edge">
<title>prometheus&#45;&gt;mongodb&#45;exporter</title>
<path fill="none" stroke="black" stroke-dasharray="1,5" d="M790.55,-401.46C767.28,-387.32 733.89,-369.21 702,-359.72 674.12,-351.43 208.45,-316.87 181,-307.22 158.62,-299.36 136.24,-285.22 118.82,-272.47"/>
<polygon fill="black" stroke="black" points="120.98,-269.72 110.89,-266.49 116.77,-275.31 120.98,-269.72"/>
</g>
<!-- userdb&#45;exporter -->
<g id="node17" class="node">
<title>userdb&#45;exporter</title>
<polygon fill="none" stroke="black" points="1566,-265.11 1316,-265.11 1316,-261.11 1312,-261.11 1312,-257.11 1316,-257.11 1316,-232.11 1312,-232.11 1312,-228.11 1316,-228.11 1316,-224.11 1566,-224.11 1566,-265.11"/>
<polyline fill="none" stroke="black" points="1316,-261.11 1320,-261.11 1320,-257.11 1316,-257.11"/>
<polyline fill="none" stroke="black" points="1316,-232.11 1320,-232.11 1320,-228.11 1316,-228.11"/>
<text text-anchor="middle" x="1441" y="-247.81" font-family="Times,serif" font-size="14.00">userdb&#45;exporter</text>
<text text-anchor="middle" x="1441" y="-231.31" font-family="Times,serif" font-size="14.00">(prometheuscommunity/postgres&#45;exporter)</text>
</g>
<!-- prometheus&#45;&gt;userdb&#45;exporter -->
<g id="edge16" class="edge">
<title>prometheus&#45;&gt;userdb&#45;exporter</title>
<path fill="none" stroke="black" stroke-dasharray="1,5" d="M838.72,-401.51C852.57,-387.39 873.09,-369.29 895,-359.72 922.31,-347.8 1131.43,-328.96 1161,-325.22 1225.86,-317.02 1244.11,-325.09 1307,-307.22 1337.74,-298.49 1370.36,-283.63 1395.71,-270.69"/>
<polygon fill="black" stroke="black" points="1397.15,-273.89 1404.41,-266.17 1393.92,-267.67 1397.15,-273.89"/>
</g>
<!-- 0.0.0.09090 -->
<g id="node15" class="node">
<title>0.0.0.09090</title>
<ellipse fill="none" stroke="black" cx="816" cy="-595.45" rx="58" ry="58"/>
<text text-anchor="middle" x="816" y="-590.4" font-family="Times,serif" font-size="14.00">0.0.0.0:9090</text>
</g>
<!-- 0.0.0.09090&#45;&gt;prometheus -->
<g id="edge13" class="edge">
<title>0.0.0.09090&#45;&gt;prometheus</title>
<path fill="none" stroke="black" d="M817.68,-536.99C818.48,-509.51 819.41,-477.66 820.08,-454.69"/>
<polygon fill="black" stroke="black" points="823.58,-454.85 820.37,-444.75 816.58,-454.64 823.58,-454.85"/>
<text text-anchor="middle" x="832.15" y="-506.14" font-family="Times,serif" font-size="14.00">9090</text>
</g>
<!-- mongodb&#45;exporter&#45;&gt;mongodb -->
<g id="edge21" class="edge">
<title>mongodb&#45;exporter&#45;&gt;mongodb</title>
<path fill="none" stroke="black" stroke-dasharray="1,5" d="M115.61,-223.65C134.19,-211.32 158.75,-195.35 181,-182 207.93,-165.84 238.64,-148.77 263.45,-135.31"/>
<polygon fill="black" stroke="black" points="264.88,-138.51 272.01,-130.68 261.55,-132.35 264.88,-138.51"/>
</g>
<!-- userdb&#45;exporter&#45;&gt;userdb -->
<g id="edge23" class="edge">
<title>userdb&#45;exporter&#45;&gt;userdb</title>
<path fill="none" stroke="black" stroke-dasharray="1,5" d="M1404.81,-223.67C1378.43,-209.96 1341.43,-192.42 1307,-182 1200.4,-149.75 1075.18,-131.3 982.95,-121.17"/>
<polygon fill="black" stroke="black" points="983.41,-117.69 973.09,-120.1 982.66,-124.65 983.41,-117.69"/>
</g>
<!-- grafana -->
<g id="node18" class="node">
<title>grafana</title>
<polygon fill="none" stroke="black" points="1001.88,-615.95 892.12,-615.95 892.12,-611.95 888.12,-611.95 888.12,-607.95 892.12,-607.95 892.12,-582.95 888.12,-582.95 888.12,-578.95 892.12,-578.95 892.12,-574.95 1001.88,-574.95 1001.88,-615.95"/>
<polyline fill="none" stroke="black" points="892.12,-611.95 896.12,-611.95 896.12,-607.95 892.12,-607.95"/>
<polyline fill="none" stroke="black" points="892.12,-582.95 896.12,-582.95 896.12,-578.95 892.12,-578.95"/>
<text text-anchor="middle" x="947" y="-598.65" font-family="Times,serif" font-size="14.00">grafana</text>
<text text-anchor="middle" x="947" y="-582.15" font-family="Times,serif" font-size="14.00">(grafana/grafana)</text>
</g>
<!-- grafana&#45;&gt;prometheus -->
<g id="edge19" class="edge">
<title>grafana&#45;&gt;prometheus</title>
<path fill="none" stroke="black" stroke-dasharray="1,5" d="M932.3,-574.49C910.11,-544.35 867.93,-487.07 842.35,-452.33"/>
<polygon fill="black" stroke="black" points="845.25,-450.37 836.5,-444.39 839.62,-454.52 845.25,-450.37"/>
</g>
<!-- grafana_data -->
<g id="node19" class="node">
<title>grafana_data</title>
<path fill="none" stroke="black" d="M989.88,-437.06C989.88,-438.87 970.66,-440.33 947,-440.33 923.34,-440.33 904.12,-438.87 904.12,-437.06 904.12,-437.06 904.12,-407.61 904.12,-407.61 904.12,-405.8 923.34,-404.33 947,-404.33 970.66,-404.33 989.88,-405.8 989.88,-407.61 989.88,-407.61 989.88,-437.06 989.88,-437.06"/>
<path fill="none" stroke="black" d="M989.88,-437.06C989.88,-435.26 970.66,-433.79 947,-433.79 923.34,-433.79 904.12,-435.26 904.12,-437.06"/>
<text text-anchor="middle" x="947" y="-417.28" font-family="Times,serif" font-size="14.00">grafana_data</text>
</g>
<!-- grafana&#45;&gt;grafana_data -->
<g id="edge17" class="edge">
<title>grafana&#45;&gt;grafana_data</title>
<path fill="none" stroke="black" stroke-dasharray="5,2" d="M947,-563.18C947,-531.39 947,-482.56 947,-451.81"/>
<polygon fill="black" stroke="black" points="943.5,-562.97 947,-572.97 950.5,-562.97 943.5,-562.97"/>
<polygon fill="black" stroke="black" points="950.5,-452.12 947,-442.12 943.5,-452.12 950.5,-452.12"/>
<text text-anchor="middle" x="988.62" y="-506.14" font-family="Times,serif" font-size="14.00">/var/lib/grafana</text>
</g>
<!-- 0.0.0.03001 -->
<g id="node20" class="node">
<title>0.0.0.03001</title>
<ellipse fill="none" stroke="black" cx="947" cy="-763.96" rx="58" ry="58"/>
<text text-anchor="middle" x="947" y="-758.91" font-family="Times,serif" font-size="14.00">0.0.0.0:3001</text>
</g>
<!-- 0.0.0.03001&#45;&gt;grafana -->
<g id="edge18" class="edge">
<title>0.0.0.03001&#45;&gt;grafana</title>
<path fill="none" stroke="black" d="M947,-705.66C947,-679.46 947,-649.46 947,-627.54"/>
<polygon fill="black" stroke="black" points="950.5,-627.78 947,-617.78 943.5,-627.78 950.5,-627.78"/>
<text text-anchor="middle" x="960.5" y="-674.65" font-family="Times,serif" font-size="14.00">3000</text>
</g>
<!-- 0.0.0.09216 -->
<g id="node21" class="node">
<title>0.0.0.09216</title>
<ellipse fill="none" stroke="black" cx="86" cy="-422.33" rx="58" ry="58"/>
<text text-anchor="middle" x="86" y="-417.28" font-family="Times,serif" font-size="14.00">0.0.0.0:9216</text>
</g>
<!-- 0.0.0.09216&#45;&gt;mongodb&#45;exporter -->
<g id="edge20" class="edge">
<title>0.0.0.09216&#45;&gt;mongodb&#45;exporter</title>
<path fill="none" stroke="black" d="M86,-364.28C86,-335.13 86,-300.81 86,-276.59"/>
<polygon fill="black" stroke="black" points="89.5,-276.77 86,-266.77 82.5,-276.77 89.5,-276.77"/>
<text text-anchor="middle" x="99.5" y="-328.42" font-family="Times,serif" font-size="14.00">9216</text>
</g>
<!-- 0.0.0.09187 -->
<g id="node22" class="node">
<title>0.0.0.09187</title>
<ellipse fill="none" stroke="black" cx="1441" cy="-422.33" rx="58" ry="58"/>
<text text-anchor="middle" x="1441" y="-417.28" font-family="Times,serif" font-size="14.00">0.0.0.0:9187</text>
</g>
<!-- 0.0.0.09187&#45;&gt;userdb&#45;exporter -->
<g id="edge22" class="edge">
<title>0.0.0.09187&#45;&gt;userdb&#45;exporter</title>
<path fill="none" stroke="black" d="M1441,-364.28C1441,-335.13 1441,-300.81 1441,-276.59"/>
<polygon fill="black" stroke="black" points="1444.5,-276.77 1441,-266.77 1437.5,-276.77 1444.5,-276.77"/>
<text text-anchor="middle" x="1454.5" y="-328.42" font-family="Times,serif" font-size="14.00">9187</text>
</g>
</g>
</svg>
